<?xml version="1.0" encoding="UTF-8" standalone="no"?>
<!-- Created with Inkscape (http://www.inkscape.org/) -->

<svg
   xmlns:dc="http://purl.org/dc/elements/1.1/"
   xmlns:cc="http://creativecommons.org/ns#"
   xmlns:rdf="http://www.w3.org/1999/02/22-rdf-syntax-ns#"
   xmlns:svg="http://www.w3.org/2000/svg"
   xmlns="http://www.w3.org/2000/svg"
   xmlns:xlink="http://www.w3.org/1999/xlink"
   xmlns:sodipodi="http://sodipodi.sourceforge.net/DTD/sodipodi-0.dtd"
   xmlns:inkscape="http://www.inkscape.org/namespaces/inkscape"
   width="64px"
   height="64px"
   id="svg2860"
   sodipodi:version="0.32"
   inkscape:version="0.91 r13725"
   sodipodi:docname="fem-solver-generic.svg"
   inkscape:output_extension="org.inkscape.output.svg.inkscape"
   version="1.1">
  <defs
     id="defs2862">
    <radialGradient
       inkscape:collect="always"
       xlink:href="#linearGradient3377"
       id="radialGradient3692"
       cx="45.883327"
       cy="28.869568"
       fx="45.883327"
       fy="28.869568"
       r="19.467436"
       gradientUnits="userSpaceOnUse" />
    <radialGradient
       inkscape:collect="always"
       xlink:href="#linearGradient3377"
       id="radialGradient3703"
       gradientUnits="userSpaceOnUse"
       cx="135.38333"
       cy="97.369568"
       fx="135.38333"
       fy="97.369568"
       r="19.467436"
       gradientTransform="matrix(0.97435,0.2250379,-0.4623105,2.0016728,48.487554,-127.99883)" />
    <linearGradient
       id="linearGradient3377">
      <stop
         id="stop3379"
         offset="0"
         style="stop-color:#faff2b;stop-opacity:1;" />
      <stop
         id="stop3381"
         offset="1"
         style="stop-color:#ffaa00;stop-opacity:1;" />
    </linearGradient>
    <radialGradient
       inkscape:collect="always"
       xlink:href="#linearGradient3377"
       id="radialGradient3705"
       gradientUnits="userSpaceOnUse"
       cx="148.88333"
       cy="81.869568"
       fx="148.88333"
       fy="81.869568"
       r="19.467436"
       gradientTransform="matrix(1.3852588,-5.1367833e-2,3.7056289e-2,0.9993132,-60.392403,7.7040438)" />
    <inkscape:perspective
       sodipodi:type="inkscape:persp3d"
       inkscape:vp_x="0 : 32 : 1"
       inkscape:vp_y="0 : 1000 : 0"
       inkscape:vp_z="64 : 32 : 1"
       inkscape:persp3d-origin="32 : 21.333333 : 1"
       id="perspective2868" />
  </defs>
  <sodipodi:namedview
     id="base"
     pagecolor="#ffffff"
     bordercolor="#666666"
     borderopacity="1.0"
     inkscape:pageopacity="0.0"
     inkscape:pageshadow="2"
     inkscape:zoom="2.75"
     inkscape:cx="40.832464"
     inkscape:cy="47.3812"
     inkscape:current-layer="layer1"
     showgrid="true"
     inkscape:document-units="px"
     inkscape:grid-bbox="true"
     inkscape:window-width="1391"
     inkscape:window-height="876"
     inkscape:window-x="49"
     inkscape:window-y="24"
     inkscape:window-maximized="1" />
  <metadata
     id="metadata2865">
    <rdf:RDF>
      <cc:Work
         rdf:about="">
        <dc:format>image/svg+xml</dc:format>
        <dc:type
           rdf:resource="http://purl.org/dc/dcmitype/StillImage" />
        <dc:title></dc:title>
      </cc:Work>
    </rdf:RDF>
  </metadata>
  <g
     id="layer1"
     inkscape:label="Layer 1"
     inkscape:groupmode="layer">
    <path
       style="fill:#ff2a2a"
       d="M 11.754126,56.082969 C 9.9807024,55.847848 7.7607179,54.945643 5.8002044,53.663287 l -0.5449363,-0.356437 0,-2.957551 c 0,-1.626652 0.021355,-2.957549 0.047474,-2.957549 0.026108,0 0.3435608,0.289788 0.7054508,0.643973 2.4045363,2.353345 4.8898276,3.462166 7.2798286,3.247919 2.641541,-0.236792 4.21308,-1.81833 4.901949,-4.93314 0.244882,-1.107266 0.264466,-1.32649 0.259815,-2.908519 -0.0064,-2.174628 -0.205953,-3.405591 -0.755837,-4.662261 -0.782638,-1.788591 -1.925146,-2.69149 -4.809582,-3.800905 C 9.1841388,33.555629 7.6097903,32.267557 6.4208943,29.690645 5.5505736,27.804241 5.1687266,25.584787 5.1687266,22.412526 c 0,-3.052144 0.3687842,-5.334077 1.1875098,-7.347975 C 7.68326,11.800342 9.7843097,10.044953 12.751845,9.7211365 14.762203,9.5017667 18.26241,10.50663 20.08962,11.827714 l 0.262376,0.189699 0,2.854983 0,2.854984 -0.349774,-0.333744 c -0.70581,-0.673464 -2.39694,-1.809398 -3.411502,-2.29151 -0.957699,-0.455093 -1.186272,-0.4953 -2.818311,-0.495763 -1.389134,-3.95e-4 -1.891293,0.06448 -2.304886,0.29778 -1.6915579,0.954172 -2.6569284,2.501128 -3.0302,4.855736 -0.1470268,0.927451 -0.1616274,3.31541 -0.025881,4.233836 0.2430549,1.644524 0.7350548,2.663733 1.6877046,3.496192 0.687143,0.600449 1.546576,1.032095 3.996191,2.00707 3.513965,1.398598 4.920908,2.609783 6.174398,5.315307 0.598145,1.29103 0.898516,2.323881 1.195778,4.111766 0.272711,1.64022 0.340722,4.936071 0.142737,6.916995 -0.544819,5.451141 -2.707706,8.890726 -6.221214,9.893445 -0.953042,0.271991 -2.842667,0.453248 -3.632902,0.348479 z"
       id="path2995"
       inkscape:connector-curvature="0" />
    <text
       xml:space="preserve"
       style="font-size:55.9948082px;font-style:normal;font-weight:normal;line-height:125%;letter-spacing:0px;word-spacing:0px;fill:#ff0000;fill-opacity:1;stroke:none;font-family:Bitstream Vera Sans"
       x="28.894026"
       y="41.966354"
       id="text2992"
       sodipodi:linespacing="125%"
       transform="scale(0.79003371,1.2657688)"><tspan
         sodipodi:role="line"
         id="tspan2994"
         x="28.894026"
         y="41.966354"
         style="font-size:19.59818268px;fill:#ff0000">olver</tspan></text>
    <path
       style="fill:#000000"
       d="m 43.801817,37.212987 c 0.01024,-0.01697 0.462727,-0.568341 1.005427,-1.225345 0.826122,-1.000138 1.930523,-2.379013 3.403957,-4.249958 0.261155,-0.331613 0.2918,-0.383849 0.733557,-1.250061 l 0.461017,-0.904005 -0.03846,-0.736574 -0.03846,-0.736573 -0.562605,-1.129234 c -0.52206,-1.047853 -0.606963,-1.2011 -1.178051,-2.126618 -0.338494,-0.548548 -0.693596,-1.130366 -0.789114,-1.292919 -0.341994,-0.58203 -0.869979,-1.513815 -1.116514,-1.970425 -0.05851,-0.108362 -0.219605,-0.402086 -0.357986,-0.652691 -0.872716,-1.580544 -1.468309,-2.746888 -2.018911,-3.95362 -0.49965,-1.095069 -0.561423,-1.260616 -0.800151,-2.144452 l -0.09879,-0.365707 0,-0.69289 0,-0.692889 0.691833,-0.929688 c 0.586099,-0.787608 0.812931,-1.067666 1.484183,-1.832538 0.81872,-0.9328927 1.046276,-1.1625512 2.492507,-2.5155081 0.31097,-0.2909208 0.748276,-0.7015602 0.971795,-0.912582 0.22352,-0.2109981 0.545522,-0.5105425 0.715561,-0.665628 0.445945,-0.4067517 2.234869,-1.9307688 2.27734,-1.9400994 0.02655,-0.00589 0.01614,0.039065 -0.04,0.1724036 -0.532687,1.2653764 -0.89755,2.0967163 -1.224985,2.7911136 -0.368251,0.780964 -0.419034,0.9069978 -0.75313,1.8692716 l -0.358252,1.0318527 0.01869,0.855067 0.01869,0.855067 0.07192,0.0958 c 0.03955,0.05271 0.150932,0.190028 0.247507,0.305175 0.09658,0.115154 0.364282,0.436581 0.5949,0.714284 0.236087,0.284276 0.687323,0.779527 1.032662,1.133381 0.64639,0.662306 1.939584,2.008123 2.493501,2.59496 0.536824,0.568718 1.866674,2.111584 2.578674,2.991722 0.365346,0.451613 0.927723,1.186372 1.249729,1.632779 l 0.585463,0.811665 0.430432,0.924858 c 0.422658,0.908152 0.435989,0.941917 0.738409,1.869743 l 0.307979,0.944909 0,0.885885 0,0.885887 -0.210308,0.488347 c -0.115666,0.268608 -0.284693,0.646143 -0.37561,0.838974 l -0.165304,0.350604 -0.62807,0.667136 c -0.623456,0.662234 -0.632325,0.670363 -1.206881,1.104588 -0.833254,0.62972 -1.269007,0.941352 -1.674855,1.197754 -0.196425,0.12413 -0.750605,0.478686 -1.231511,0.787939 -0.745969,0.479723 -1.036065,0.648333 -1.975449,1.148201 -1.070645,0.569731 -1.137694,0.601329 -2.426075,1.143514 -0.72875,0.306684 -1.674133,0.699676 -2.100852,0.873352 -0.768226,0.312621 -0.787872,0.319006 -1.999084,0.650147 -0.672776,0.183926 -1.230382,0.334416 -1.239121,0.334416 -0.0087,0 -0.0075,-0.01391 0.0027,-0.0308 z m -1.507606,-4.212329 c -0.64875,-0.304282 -1.223725,-0.60319 -1.9441,-1.010624 -0.447189,-0.252939 -1.745154,-1.160762 -2.236939,-1.564544 -0.469945,-0.385876 -1.367787,-1.157156 -1.495241,-1.284462 -0.09785,-0.09776 -0.37843,-0.535825 -0.957415,-1.494848 -0.179616,-0.297517 -0.179591,-0.2974 -0.347442,-1.351848 l -0.125673,-0.789471 0.431935,-1.677664 0.431935,-1.677666 0.500898,-1.018045 c 0.461583,-0.938123 0.557587,-1.111776 1.223218,-2.212594 1.483054,-2.452646 1.618783,-2.672526 1.653879,-2.679313 0.04129,-0.008 0.940434,1.110009 1.834322,2.280783 0.808765,1.059304 1.709639,2.268154 1.709639,2.29412 0,0.01174 0.0095,0.02517 0.02121,0.02969 0.02578,0.0099 1.263388,1.669017 1.742432,2.335753 0.520371,0.724273 0.782591,1.115356 1.147749,1.711806 0.182457,0.298013 0.498014,0.807873 0.701236,1.132981 0.203226,0.32511 0.382529,0.61563 0.39845,0.645554 0.02911,0.05473 0.17606,1.146341 0.17606,1.307882 0,0.09793 -0.0087,0.113906 -0.450839,0.829644 -0.322642,0.522276 -0.474491,0.722295 -1.580039,2.081236 -0.327886,0.403029 -0.779383,0.913902 -1.834918,2.076171 -0.168702,0.185763 -0.318331,0.337479 -0.332508,0.337172 -0.01418,0 -0.31471,-0.13607 -0.66785,-0.301711 z"
       id="path3358"
       inkscape:connector-curvature="0"
       sodipodi:nodetypes="sssscccssssssscccssssscssscccssssssscsscccsscsssssssssssssssscccsscsscssscsssscs" />
  </g>
</svg>
